<svg width="534" height="500" viewBox="0 0 534 500" fill="none" xmlns="http://www.w3.org/2000/svg">
<g clip-path="url(#clip0_706_1915)">
<g clip-path="url(#clip1_706_1915)">
<path d="M540.122 0H325.487V139.109H540.122V0Z" fill="#88A5BF"/>
<path d="M71.4047 323.649C105.043 323.649 132.311 296.381 132.311 262.743C132.311 229.105 105.043 201.836 71.4047 201.836C37.7669 201.836 10.498 229.105 10.498 262.743C10.498 296.381 37.7669 323.649 71.4047 323.649Z" fill="#A65644"/>
<path d="M20.9621 139.15H-0.0341797V4.87012H21.1108V59.9853C23.3329 56.1535 26.981 52.9458 32.0551 50.362C37.4701 47.6831 43.4506 46.3478 49.4908 46.469C62.596 46.469 72.8258 50.8899 80.1803 59.7317C87.5348 68.5734 91.215 79.856 91.2209 93.5794C91.2209 107.577 87.357 119.043 79.6292 127.978C71.9014 136.913 61.6074 141.395 48.7472 141.425C35.9161 141.425 26.6427 136.666 20.9271 127.147L20.9621 139.15ZM62.7884 114.576C67.2968 109.437 69.551 102.482 69.551 93.7106C69.551 84.9388 67.3259 78.0451 62.8759 73.0293C58.42 68.0252 52.5469 65.5202 45.2565 65.5144C41.9791 65.4271 38.722 66.0541 35.7112 67.3518C32.7004 68.6495 30.008 70.5868 27.8209 73.0293C23.2425 78.0334 20.9563 84.9272 20.9621 93.7106C20.9621 102.36 23.2484 109.283 27.8209 114.479C29.9641 116.994 32.6414 118.999 35.6578 120.347C38.6741 121.696 41.9534 122.354 45.2565 122.274C52.4303 122.274 58.2742 119.708 62.7884 114.576Z" fill="#D9D3D0"/>
<path d="M110.142 26.9487C108.825 25.6755 107.784 24.1461 107.081 22.455C106.378 20.7638 106.03 18.9466 106.056 17.1155C106.035 15.2721 106.386 13.4434 107.088 11.7388C107.79 10.0342 108.829 8.48871 110.142 7.19474C111.399 5.85484 112.923 4.79176 114.614 4.07327C116.306 3.35478 118.128 2.99666 119.966 3.02174C121.824 2.99946 123.667 3.34872 125.387 4.049C127.108 4.74928 128.671 5.78646 129.985 7.09953C131.298 8.4126 132.337 9.97509 133.038 11.6951C133.739 13.4152 134.09 15.2581 134.069 17.1155C134.095 18.9466 133.746 20.7638 133.044 22.455C132.341 24.1461 131.299 25.6755 129.983 26.9487C128.68 28.2762 127.119 29.3227 125.397 30.0239C123.674 30.725 121.826 31.0659 119.966 31.0255C118.137 31.0545 116.321 30.7076 114.631 30.0064C112.941 29.3051 111.413 28.2644 110.142 26.9487ZM130.727 139.156H109.398V48.8286H130.727V139.156Z" fill="#D9D3D0"/>
<path d="M174.807 139.15H153.295V4.87012H174.807V139.15Z" fill="#D9D3D0"/>
<path d="M285.22 4.87012V122.642C285.187 128.159 285.497 133.672 286.148 139.15H265.563C264.91 135.289 264.6 131.378 264.635 127.462C262.216 131.736 258.609 135.216 254.251 137.479C249.293 140.139 243.735 141.48 238.11 141.372C225.25 141.372 214.801 136.861 206.764 127.838C198.727 118.816 194.709 107.443 194.709 93.7194C194.709 80.4918 198.76 69.2996 206.861 60.1429C214.962 50.9862 225.256 46.4136 237.743 46.4253C244.905 46.4253 250.684 47.723 255.082 50.3184C259.479 52.9137 262.541 55.9436 264.268 59.408V4.87012H285.22ZM216.23 93.7107C216.23 102.36 218.455 109.315 222.905 114.576C227.355 119.836 233.228 122.461 240.525 122.449C243.82 122.533 247.09 121.857 250.082 120.473C253.073 119.09 255.706 117.036 257.776 114.471C262.221 109.158 264.446 102.173 264.452 93.5182C264.452 84.9798 262.288 78.1793 257.96 73.1168C253.633 68.0544 247.882 65.5173 240.708 65.5057C237.386 65.4112 234.083 66.0524 231.037 67.3833C227.991 68.7142 225.277 70.702 223.089 73.2043C218.516 78.3484 216.23 85.1839 216.23 93.7107Z" fill="#D9D3D0"/>
<path d="M268.306 328.49H165.748V306.619L238.631 217.962H167.769V196.966H267.379V218.155L193.568 307.389H268.306V328.49Z" fill="#D9D3D0"/>
<path d="M371.163 328.487H289.907V196.989H371.145V217.767H312.181V252.629H365.599V272.847H312.181V307.719H371.163V328.487Z" fill="#D9D3D0"/>
<path d="M414.368 328.487H391.735V196.989H414.368V328.487Z" fill="#D9D3D0"/>
<path d="M540.306 217.951H497.438V328.488H475.199V217.951H432.507V196.955H540.306V217.951Z" fill="#D9D3D0"/>
<path d="M0 472.733L18.7042 467.545C19.0187 471.748 20.9466 475.667 24.0845 478.481C27.3039 481.455 31.6315 482.94 37.0672 482.934C41.2781 482.934 44.585 481.945 46.9879 479.968C48.1271 479.099 49.0477 477.975 49.6764 476.687C50.3052 475.399 50.6247 473.983 50.6098 472.55C50.6098 467.353 47.0841 464.014 40.0329 462.533L26.709 459.611C18.9229 457.861 12.9273 454.653 8.7222 449.987C4.56718 445.428 2.31083 439.454 2.41458 433.286C2.41458 425.378 5.62234 418.548 12.0379 412.798C18.4534 407.047 26.3066 404.172 35.5974 404.172C40.962 404.087 46.2975 404.976 51.3446 406.796C55.3817 408.185 59.0351 410.504 62.009 413.567C64.2887 415.997 66.2495 418.708 67.8442 421.633C69.1608 424.058 70.0487 426.692 70.4688 429.42L52.2982 434.616C51.78 431.038 50.1235 427.722 47.5741 425.159C44.9145 422.377 40.9281 420.986 35.6149 420.986C32.2576 420.868 28.9686 421.954 26.3416 424.048C25.1987 424.9 24.2689 426.006 23.6252 427.278C22.9816 428.55 22.6417 429.954 22.6322 431.379C22.6322 436.442 25.6621 439.594 31.7219 440.836L45.4394 443.618C53.8496 445.473 60.2797 448.812 64.7297 453.635C69.1419 458.352 71.5371 464.605 71.4048 471.062C71.4048 478.615 68.407 485.322 62.4114 491.184C56.4158 497.045 48.0377 499.982 37.2771 499.993C31.6132 500.087 25.98 499.144 20.6551 497.211C16.338 495.716 12.4102 493.274 9.15962 490.064C6.60302 487.461 4.41856 484.517 2.66828 481.315C1.20831 478.664 0.300627 475.745 0 472.733V472.733Z" fill="#D9D3D0"/>
<path d="M128.877 423.948C125.578 423.896 122.304 424.538 119.269 425.832C116.234 427.127 113.504 429.045 111.258 431.463C106.435 436.473 104.023 443.305 104.023 451.96C104.023 460.709 106.464 467.632 111.346 472.729C113.63 475.179 116.404 477.122 119.487 478.432C122.571 479.742 125.895 480.389 129.245 480.331C135.55 480.331 140.589 478.631 144.362 475.231C147.921 472.162 150.528 468.14 151.877 463.639L170.791 470.507C168.318 478.544 163.527 485.467 156.417 491.276C149.308 497.084 140.25 500.001 129.245 500.024C116.017 500.024 104.921 495.449 95.9571 486.298C86.9929 477.147 82.5107 465.71 82.5107 451.986C82.5107 438.135 86.9316 426.698 95.7734 417.675C104.615 408.653 115.589 404.139 128.694 404.133C139.944 404.133 149.124 407.049 156.234 412.881C163.343 418.713 167.948 425.712 170.048 433.877L150.801 440.929C149.622 436.334 147.14 432.178 143.654 428.961C140.113 425.625 135.188 423.954 128.877 423.948Z" fill="#D9D3D0"/>
<path d="M207.909 444.164V497.223H186.388V362.935H207.909V415.609C213.741 408.068 222.332 404.294 233.682 404.288C244.32 404.288 252.485 407.627 258.177 414.305C263.87 420.983 266.713 429.577 266.707 440.087V497.223H245.186V443.796C245.186 437.743 243.702 432.89 240.733 429.239C237.764 425.588 233.067 423.754 226.639 423.736C220.953 423.736 216.471 425.655 213.193 429.493C209.915 433.33 208.154 438.221 207.909 444.164Z" fill="#D9D3D0"/>
<path d="M338.703 406.342V428.213C336.387 427.859 334.047 427.675 331.704 427.662C315.502 427.668 307.401 436.51 307.401 454.188V497.23H285.845V406.893H306.841V421.363C308.928 416.573 312.505 412.584 317.042 409.99C321.878 407.172 327.393 405.729 332.99 405.817C334.907 405.802 336.821 405.978 338.703 406.342V406.342Z" fill="#D9D3D0"/>
<path d="M353.936 385.014C352.621 383.74 351.58 382.211 350.879 380.519C350.178 378.828 349.831 377.011 349.859 375.181C349.836 373.338 350.186 371.51 350.886 369.805C351.587 368.1 352.624 366.554 353.936 365.26C355.196 363.921 356.721 362.858 358.414 362.14C360.106 361.421 361.93 361.063 363.769 361.087C365.626 361.064 367.469 361.412 369.19 362.112C370.911 362.812 372.474 363.849 373.787 365.163C375.1 366.476 376.138 368.039 376.838 369.76C377.538 371.48 377.886 373.323 377.863 375.181C377.891 377.011 377.544 378.828 376.842 380.519C376.141 382.211 375.101 383.74 373.786 385.014C372.482 386.34 370.921 387.385 369.198 388.086C367.476 388.787 365.628 389.129 363.769 389.091C361.939 389.117 360.122 388.769 358.431 388.068C356.741 387.367 355.211 386.327 353.936 385.014V385.014ZM374.529 497.23H353.201V406.894H374.529V497.23Z" fill="#D9D3D0"/>
<path d="M442.41 381.294C439.03 381.228 435.728 382.307 433.04 384.356C430.381 386.391 429.051 389.946 429.051 395.02V406.892H450.047V425.622H429.051V497.228H407.355V425.622H391.607V406.892H407.355V394.469C407.355 384.455 410.271 376.541 416.103 370.726C421.935 364.911 429.541 361.995 438.919 361.978C443.987 361.978 447.758 362.596 450.231 363.832V382.204C447.679 381.536 445.046 381.23 442.41 381.294V381.294Z" fill="#D9D3D0"/>
<path d="M496.749 379.256V406.892H515.48V425.999H496.749V467.913C496.749 471.873 497.676 474.748 499.531 476.539C501.386 478.329 504.302 479.224 508.28 479.224C510.771 479.223 513.256 478.974 515.698 478.481V496.293C512.479 497.651 508.087 498.331 502.523 498.331C494.119 498.331 487.505 495.951 482.682 491.192C477.858 486.433 475.447 479.848 475.447 471.438V425.999H425.887V406.892H463.365C467.943 406.892 471.405 405.594 473.749 402.999C476.094 400.404 477.261 397.004 477.249 392.798V379.256H496.749Z" fill="#D9D3D0"/>
</g>
</g>
<defs>
<clipPath id="clip0_706_1915">
<rect width="533.333" height="500" fill="white"/>
</clipPath>
<clipPath id="clip1_706_1915">
<rect width="540.295" height="500" fill="white"/>
</clipPath>
</defs>
</svg>
