<svg width="209" height="197" viewBox="0 0 209 197" fill="none" xmlns="http://www.w3.org/2000/svg">
<g clip-path="url(#clip0_706_143)">
<path d="M1.65625 1.79297H18.9915C23.7279 1.79297 27.4705 3.04745 30.2192 5.5564C32.9679 8.06536 34.3422 11.3327 34.3422 15.3584C34.3921 17.7737 33.6693 20.1419 32.2791 22.1181C30.946 24.0048 29.0594 25.431 26.88 26.1996C29.492 26.852 31.8001 28.3821 33.4172 30.5334C35.0835 32.738 35.9593 35.4388 35.9035 38.2012C35.9035 42.2728 34.4592 45.6112 31.5706 48.2163C28.6819 50.8214 24.9153 52.1229 20.2707 52.1207H1.65625V1.79297ZM10.109 23.1016H17.8566C20.3188 23.1016 22.2606 22.4623 23.682 21.1838C25.1033 19.9053 25.814 18.2006 25.814 16.0697C25.814 13.8842 25.0913 12.1686 23.6459 10.9229C22.2005 9.67717 20.1996 9.04992 17.6434 9.04118H10.0992L10.109 23.1016ZM10.109 44.902H18.7783C21.3367 44.902 23.3857 44.2518 24.9251 42.9514C26.4646 41.651 27.2299 39.8873 27.2212 37.6603C27.2212 35.4333 26.4996 33.6455 25.0563 32.2971C23.6131 30.9486 21.6111 30.2744 19.0505 30.2744H10.0959L10.109 44.902Z" fill="#D9D3D0"/>
<path d="M44.3601 9.16313C43.8555 8.67627 43.4562 8.09104 43.1871 7.44368C42.918 6.79632 42.7847 6.10063 42.7955 5.39969C42.7871 4.69374 42.9213 3.99334 43.1901 3.34046C43.459 2.68759 43.8569 2.09568 44.3601 1.6002C44.8424 1.08708 45.4263 0.679864 46.0745 0.404447C46.7228 0.12903 47.4213 -0.00856487 48.1257 0.000412657C48.8373 -0.00749072 49.5433 0.126767 50.2023 0.395308C50.8614 0.663848 51.46 1.06126 51.9633 1.56422C52.4665 2.06717 52.8641 2.66552 53.1328 3.32417C53.4015 3.98281 53.5359 4.68846 53.5279 5.39969C53.538 6.10052 53.4044 6.79598 53.1353 7.44323C52.8662 8.09048 52.4674 8.6758 51.9633 9.16313C51.4644 9.6719 50.8665 10.0731 50.2065 10.3421C49.5464 10.611 48.8383 10.742 48.1257 10.7269C47.4244 10.7373 46.7284 10.6039 46.0808 10.335C45.4331 10.066 44.8475 9.66719 44.3601 9.16313ZM52.2487 52.1279H44.0748V17.5292H52.2487V52.1279Z" fill="#D9D3D0"/>
<path d="M69.8366 52.127H61.5938V0.710938H69.8366V52.127Z" fill="#D9D3D0"/>
<path d="M112.471 0.710938V45.8066C112.457 47.9187 112.576 50.0296 112.825 52.127H104.953C104.704 50.6487 104.586 49.1513 104.599 47.6522C103.672 49.2888 102.29 50.6213 100.62 51.4878C98.7211 52.5061 96.5921 53.0198 94.4373 52.9794C89.5106 52.9794 85.5078 51.2517 82.4289 47.7965C79.35 44.3412 77.8105 39.9855 77.8105 34.7294C77.8105 29.6612 79.362 25.3765 82.465 21.8753C85.5679 18.3742 89.5117 16.6258 94.2962 16.6301C97.0427 16.6301 99.2568 17.1273 100.938 18.1217C102.62 19.1161 103.793 20.2755 104.458 21.6V0.710938H112.471ZM86.037 34.7294C86.037 38.0426 86.8898 40.7056 88.5954 42.7185C90.3011 44.7313 92.5512 45.7366 95.3458 45.7344C96.608 45.767 97.8607 45.5086 99.0069 44.9793C100.153 44.4501 101.162 43.6641 101.955 42.6824C103.656 40.6455 104.508 37.9705 104.51 34.6572C104.51 31.3921 103.682 28.7881 102.024 26.8452C100.367 24.9023 98.1634 23.9319 95.4147 23.9341C92.6682 23.9341 90.4192 24.9176 88.6676 26.8845C86.916 28.8515 86.0392 31.4664 86.037 34.7294Z" fill="#D9D3D0"/>
<path d="M125.457 123.996H86.1621V115.617L114.089 81.6707H86.9461V73.6455H125.103V81.7428L96.8224 115.899H125.457V123.996Z" fill="#D9D3D0"/>
<path d="M156.864 111.923L163.828 114.126C162.855 117.27 160.901 120.02 158.251 121.974C155.527 124.028 152.175 125.055 148.195 125.055C143.268 125.055 139.087 123.375 135.652 120.013C132.216 116.652 130.5 112.154 130.502 106.52C130.502 101.218 132.172 96.8623 135.511 93.4529C138.85 90.0436 142.793 88.3389 147.342 88.3389C152.645 88.3389 156.79 89.9605 159.777 93.2038C162.764 96.4471 164.256 100.818 164.254 106.317C164.254 107.785 164.183 108.66 164.041 108.939H138.745C138.759 110.156 139.022 111.357 139.516 112.468C140.011 113.58 140.727 114.579 141.621 115.404C143.387 117.084 145.744 118.003 148.182 117.961C152.642 117.961 155.537 115.948 156.864 111.923ZM138.958 102.904H155.939C155.902 100.855 155.08 98.8979 153.643 97.436C152.2 95.9695 150.128 95.2363 147.427 95.2363C144.965 95.2363 142.975 96.0012 141.457 97.5311C139.988 98.9518 139.098 100.866 138.958 102.904Z" fill="#D9D3D0"/>
<path d="M172.425 81.0323C171.92 80.545 171.522 79.9596 171.253 79.3124C170.983 78.6652 170.85 77.9697 170.86 77.2689C170.851 76.5629 170.986 75.8625 171.254 75.2096C171.523 74.5568 171.921 73.9649 172.425 73.4694C172.907 72.9559 173.49 72.5485 174.139 72.2731C174.787 71.9976 175.486 71.8602 176.19 71.8696C176.901 71.8621 177.606 71.9967 178.265 72.2655C178.923 72.5344 179.521 72.9319 180.023 73.4349C180.526 73.9379 180.922 74.5362 181.19 75.1946C181.458 75.853 181.591 76.5582 181.583 77.2689C181.593 77.9694 181.459 78.6646 181.191 79.3118C180.922 79.959 180.524 80.5445 180.021 81.0323C179.522 81.5406 178.924 81.9414 178.264 82.2097C177.604 82.4781 176.896 82.6085 176.183 82.5928C175.483 82.6033 174.789 82.4703 174.142 82.2019C173.496 81.9335 172.911 81.5354 172.425 81.0323ZM180.297 123.997H172.139V89.4115H180.31L180.297 123.997Z" fill="#D9D3D0"/>
<path d="M201.413 78.8311V89.4133H208.589V96.727H201.413V112.79C201.413 114.308 201.77 115.413 202.479 116.095C203.187 116.777 204.302 117.124 205.821 117.124C206.775 117.123 207.726 117.028 208.661 116.839V123.658C207.428 124.176 205.747 124.436 203.617 124.438C200.396 124.438 197.861 123.527 196.014 121.704C194.166 119.881 193.242 117.36 193.242 114.141V96.7238H186.846V89.41H188.623C190.373 89.41 191.699 88.9128 192.602 87.9184C193.505 86.924 193.956 85.6225 193.954 84.014V78.8311H201.413Z" fill="#D9D3D0"/>
<path d="M36.7369 157.376L29.0583 159.805C28.7281 157.864 27.7572 156.088 26.1456 154.478C24.534 152.867 22.2128 152.063 19.182 152.065C16.6694 152.065 14.5921 152.775 12.9498 154.196C11.3076 155.616 10.4909 157.321 10.4996 159.31C10.4996 162.765 12.4677 164.919 16.4037 165.771L23.6527 167.263C28.0087 168.115 31.3718 169.843 33.7422 172.446C36.0807 174.974 37.3531 178.307 37.2946 181.749C37.2946 185.917 35.6961 189.503 32.4991 192.509C29.3021 195.514 24.9549 197.017 19.4575 197.019C13.5359 197.019 8.91751 195.469 5.60245 192.368C2.28738 189.266 0.416644 185.66 -0.00976562 181.549L7.9477 179.278C8.17724 182.003 9.38952 184.552 11.359 186.45C13.3467 188.391 16.0462 189.361 19.4575 189.361C22.3964 189.361 24.6586 188.706 26.244 187.394C27.0031 186.803 27.6136 186.042 28.027 185.173C28.4404 184.304 28.6453 183.351 28.6253 182.389C28.6335 181.59 28.4802 180.797 28.1747 180.059C27.8693 179.32 27.4178 178.651 26.8475 178.091C25.6623 176.884 24.0048 176.044 21.8749 175.57L14.7703 174.081C10.8342 173.275 7.71919 171.636 5.42532 169.164C3.13145 166.692 1.98233 163.615 1.97796 159.933C1.97796 155.717 3.65955 152.094 7.02272 149.065C10.3859 146.036 14.4127 144.521 19.1032 144.521C24.4563 144.521 28.5542 145.811 31.397 148.39C34.2397 150.969 36.0197 153.964 36.7369 157.376Z" fill="#D9D3D0"/>
<path d="M60.0409 167.886C58.777 167.866 57.5228 168.111 56.3599 168.606C55.1969 169.102 54.1512 169.836 53.2905 170.761C51.4449 172.678 50.5221 175.294 50.5221 178.609C50.5221 181.97 51.457 184.622 53.3266 186.562C54.2014 187.501 55.2643 188.246 56.4459 188.747C57.6276 189.249 58.9016 189.496 60.1852 189.473C62.5906 189.473 64.5204 188.818 65.9746 187.506C67.335 186.335 68.3329 184.799 68.8512 183.081L76.1002 185.703C75.1511 188.783 73.3154 191.435 70.5929 193.66C67.8705 195.885 64.4012 196.999 60.1852 197.003C55.1142 197.003 50.8622 195.255 47.429 191.758C43.9959 188.261 42.2793 183.882 42.2793 178.619C42.2793 173.319 43.9718 168.939 47.3569 165.48C50.7419 162.02 54.947 160.293 59.972 160.297C64.2821 160.297 67.7994 161.409 70.524 163.634C73.2487 165.859 75.0134 168.534 75.8181 171.659L68.4182 174.347C67.9705 172.585 67.0201 170.991 65.6827 169.758C64.34 168.51 62.4594 167.886 60.0409 167.886Z" fill="#D9D3D0"/>
<path d="M90.6784 175.626V195.951H82.4355V144.521H90.6784V164.689C92.8957 161.802 96.1911 160.358 100.565 160.355C104.638 160.355 107.765 161.634 109.946 164.191C112.126 166.748 113.219 170.039 113.226 174.065V195.938H104.96V175.485C104.96 173.164 104.391 171.306 103.254 169.912C102.117 168.517 100.317 167.819 97.8552 167.817C95.6685 167.817 93.9508 168.551 92.7022 170.02C91.4536 171.488 90.779 173.357 90.6784 175.626Z" fill="#D9D3D0"/>
<path d="M140.519 161.139V169.519C139.626 169.381 138.724 169.31 137.82 169.306C131.614 169.306 128.511 172.693 128.511 179.468V195.945H120.271V161.352H128.298V166.893C129.096 165.053 130.467 163.52 132.208 162.523C134.061 161.444 136.174 160.892 138.318 160.926C139.057 160.925 139.795 160.996 140.519 161.139Z" fill="#D9D3D0"/>
<path d="M146.712 152.974C146.208 152.486 145.81 151.9 145.541 151.252C145.273 150.604 145.14 149.908 145.151 149.207C145.142 148.501 145.276 147.801 145.544 147.148C145.812 146.495 146.21 145.903 146.712 145.408C147.195 144.895 147.779 144.488 148.427 144.214C149.075 143.939 149.774 143.802 150.478 143.811C151.189 143.803 151.895 143.937 152.554 144.206C153.213 144.474 153.811 144.871 154.314 145.374C154.818 145.876 155.215 146.474 155.484 147.132C155.753 147.791 155.888 148.496 155.88 149.207C155.891 149.908 155.757 150.604 155.488 151.252C155.219 151.9 154.82 152.486 154.316 152.974C153.817 153.482 153.218 153.883 152.558 154.151C151.898 154.42 151.19 154.55 150.478 154.534C149.777 154.545 149.081 154.412 148.434 154.144C147.786 153.875 147.2 153.477 146.712 152.974ZM154.585 195.938H146.43V161.353H154.601L154.585 195.938Z" fill="#D9D3D0"/>
<path d="M180.597 151.55C179.304 151.523 178.039 151.937 177.012 152.724C175.991 153.504 175.482 154.864 175.484 156.805V161.352H183.513V168.525H175.49V195.938H167.175V168.525H161.137V161.352H167.175V156.592C167.175 152.759 168.288 149.729 170.514 147.505C172.741 145.28 175.654 144.166 179.256 144.164C181.198 144.164 182.642 144.401 183.589 144.875V151.907C182.614 151.647 181.606 151.526 180.597 151.55Z" fill="#D9D3D0"/>
<path d="M201.423 150.77V161.352H208.6V168.656H201.423V184.719C201.423 186.234 201.778 187.334 202.489 188.02C203.2 188.707 204.314 189.05 205.831 189.05C206.785 189.05 207.737 188.955 208.672 188.768V195.583C207.443 196.106 205.761 196.367 203.627 196.367C200.406 196.367 197.872 195.455 196.024 193.633C194.176 191.81 193.252 189.288 193.252 186.066V168.656H175.021V161.352H188.634C190.383 161.352 191.709 160.855 192.613 159.86C193.516 158.866 193.966 157.563 193.964 155.952V150.77H201.423Z" fill="#D9D3D0"/>
<path d="M209 0.354492H129.701V52.482H209V0.354492Z" fill="#A66073"/>
<path d="M36.7695 123.357C56.162 123.357 71.8827 112.229 71.8827 98.5012C71.8827 84.7738 56.162 73.6455 36.7695 73.6455C17.377 73.6455 1.65625 84.7738 1.65625 98.5012C1.65625 112.229 17.377 123.357 36.7695 123.357Z" fill="#A4A67C"/>
</g>
<defs>
<clipPath id="clip0_706_143">
<rect width="209" height="197" fill="white"/>
</clipPath>
</defs>
</svg>
