<svg xmlns="http://www.w3.org/2000/svg" viewBox="0 0 215.03 86.25"><defs><style>.cls-1{fill:#231f20;}</style></defs><g id="Layer_2" data-name="Layer 2"><g id="Layer_1-2" data-name="Layer 1"><path class="cls-1" d="M31.71,86.25H6.49A6.51,6.51,0,0,1,0,79.76V69a6.51,6.51,0,0,1,6.49-6.49H8.33a6.43,6.43,0,0,0,6.5-6.39v-41a6.52,6.52,0,0,0-6.5-6.49H4.76A4.33,4.33,0,0,1,4.76,0H17a6.42,6.42,0,0,1,6.38,6.49V56.16a6.43,6.43,0,0,0,6.5,6.39h1.84A6.51,6.51,0,0,1,38.2,69V79.76A6.51,6.51,0,0,1,31.71,86.25Z"/><path class="cls-1" d="M85.17,86.25H50.54a4.34,4.34,0,0,1-4.33-4.33v-15a4.34,4.34,0,0,1,4.33-4.33h26A6.51,6.51,0,0,0,83,56.06V51.73a6.42,6.42,0,0,0-6.49-6.39H52.7a6.51,6.51,0,0,1-6.49-6.49V4.44A4.34,4.34,0,0,1,50.54.11H85.17A6.42,6.42,0,0,1,91.55,6.6V79.76A6.42,6.42,0,0,1,85.17,86.25ZM83,15.15a6.51,6.51,0,0,0-6.49-6.49H61.25a6.42,6.42,0,0,0-6.38,6.49v15a6.42,6.42,0,0,0,6.38,6.5H76.51A6.52,6.52,0,0,0,83,30.19Z"/><path class="cls-1" d="M149,86.25h-43a6.51,6.51,0,0,1-6.5-6.49V45.88a6.28,6.28,0,0,1,2-4.54l6.93-7a6.37,6.37,0,0,0,1.84-4.54V6.6A6.51,6.51,0,0,1,116.77.11H138.3a6.51,6.51,0,0,1,6.5,6.49V29.76a6.37,6.37,0,0,0,1.84,4.54l6.92,7a6.28,6.28,0,0,1,1.95,4.54V79.76A6.51,6.51,0,0,1,149,86.25ZM147,51.73a6.42,6.42,0,0,0-6.49-6.39H114.6a6.42,6.42,0,0,0-6.49,6.39v4.33a6.51,6.51,0,0,0,6.49,6.49h25.87A6.51,6.51,0,0,0,147,56.06ZM136.14,15.15a6.39,6.39,0,0,0-6.39-6.38h-4.43a6.4,6.4,0,0,0-6.39,6.38V30.3a6.34,6.34,0,0,0,6.39,6.39h4.43a6.33,6.33,0,0,0,6.39-6.39Z"/><path class="cls-1" d="M208.65,86.25H169.91a6.51,6.51,0,0,1-6.5-6.49V6.6a6.42,6.42,0,0,1,6.5-6.38h38.74A6.39,6.39,0,0,1,215,6.6V79.76A6.49,6.49,0,0,1,208.65,86.25ZM178.46,8.77a6.42,6.42,0,0,0-6.39,6.49v41L200,8.77Zm28,6.49-28,47.29H200a6.42,6.42,0,0,0,6.49-6.39Z"/></g></g></svg>