<svg xmlns="http://www.w3.org/2000/svg" viewBox="0 0 215.03 73.18"><defs><style>.cls-1{fill:#231f20;}</style></defs><g id="Layer_2" data-name="Layer 2"><g id="Layer_1-2" data-name="Layer 1"><path class="cls-1" d="M1,71.68V65.91H3.58a8.63,8.63,0,0,0,4.83-1.09C9.49,64.09,10,62.36,10,59.63V20.15q0-5.61-1.5-7T0,11.84V6.28Q13.67,5.71,21.45,0H27V59.32c0,2.39.39,4.08,1.17,5.09s2.46,1.5,5.06,1.5h2.6v5.77Z"/><path class="cls-1" d="M82.84,44.25a15.73,15.73,0,0,1-4.31,2,17.13,17.13,0,0,1-4.88.67,21.05,21.05,0,0,1-15.14-6.07Q52.19,34.8,52.2,24.46q0-11.94,7.43-18.12A25.4,25.4,0,0,1,76.3.16a22.16,22.16,0,0,1,17.48,8q6.93,8,6.93,23.55,0,18.7-9,30.1a28.61,28.61,0,0,1-23.55,11.4q-7.07,0-10.7-2.41t-3.64-5.9a5.31,5.31,0,0,1,1.77-4,5.88,5.88,0,0,1,4.15-1.66,6,6,0,0,1,3.46,1,16.08,16.08,0,0,1,3.35,3.63A6.76,6.76,0,0,0,72.2,67q4.56,0,7.09-5T82.84,44.25Zm-13.19-20q0,9.09,1.66,12.8a5.63,5.63,0,0,0,5.46,3.71,5.73,5.73,0,0,0,5.45-3.3q1.71-3.28,1.72-11.6,0-11.75-1.9-15.79c-1.26-2.7-3.11-4-5.53-4a6,6,0,0,0-3.85,1.42A7.51,7.51,0,0,0,70.28,12Q69.65,15.06,69.65,24.26Z"/><path class="cls-1" d="M113.44,36.2,114.63,1H149.8A69.8,69.8,0,0,1,146,9.43c-.95,1.61-1.68,2.42-2.18,2.44s-2.06,0-4.65,0H120l-.47,16.63A19.05,19.05,0,0,1,132,24.26a24,24,0,0,1,16.08,6.1q7.08,6.11,7.09,17,0,12.1-8.63,19a31.77,31.77,0,0,1-20.46,6.88q-8.2,0-13.61-3.19t-5.4-7.87A5.65,5.65,0,0,1,109,57.84a6.27,6.27,0,0,1,4.42-1.8q3.94,0,6.64,5.41,2.86,5.65,7.8,5.66A7.84,7.84,0,0,0,135,63q2.41-4.08,2.41-15.71,0-9.09-2.23-12.81T128,30.8q-5.23,0-8,5.4Z"/><path class="cls-1" d="M165.74,36q0-17.55,6.86-26.69T190.41.16q10.65,0,17.64,9t7,26.29q0,19.47-6.78,28.59t-17.79,9.11a20.78,20.78,0,0,1-13.68-4.88,27.11,27.11,0,0,1-8.47-12.54Q165.75,48.1,165.74,36Zm17.45.11Q183.19,53,184.6,60t6.12,7c2.71,0,4.53-1.88,5.48-5.66s1.43-12,1.43-24.82q0-18.18-1.53-24.34t-5.84-6.15c-2.57,0-4.38,1.94-5.46,5.84S183.19,23.88,183.19,36.1Z"/></g></g></svg>