<svg xmlns="http://www.w3.org/2000/svg" viewBox="0 0 215.03 86.04"><defs><style>.cls-1{fill:#231f20;}</style></defs><g id="Layer_2" data-name="Layer 2"><g id="Layer_1-2" data-name="Layer 1"><path class="cls-1" d="M0,84.36V11.28L8.16,0V84.36Z"/><path class="cls-1" d="M72.36,23.52a23.76,23.76,0,0,1-2,9.6L48.12,84.36h-9L55.8,45.84a22.85,22.85,0,0,1-6.48.84,23.1,23.1,0,1,1,23-23.16Zm-8.4,0A14.7,14.7,0,1,0,49.32,38.28,14.72,14.72,0,0,0,64,23.52Z"/><path class="cls-1" d="M84.36,84.36l18-41.28c2.52-5.64,3.12-8.64,3.12-11.64,0-12.24-10.2-22.2-21.72-22.2h-.6V1.08h.6c16.08,0,29.88,13.56,29.88,30.36,0,4.2-.84,8.28-3.6,14.52L96.84,76.2h22.08v8.16Z"/><path class="cls-1" d="M129.36,43.32A42.84,42.84,0,1,1,172.19,86,42.86,42.86,0,0,1,129.36,43.32Zm77.15,0a34.32,34.32,0,1,0-34.32,34.32A34.42,34.42,0,0,0,206.51,43.32Z"/></g></g></svg>