<svg width="22" height="22" viewBox="0 0 22 22" fill="none" xmlns="http://www.w3.org/2000/svg">
<path d="M7.14006 20.2946C7.14006 19.5116 6.50294 18.8756 5.71996 18.8756C4.93699 18.8756 4.30096 19.5116 4.30096 20.2946C4.30096 21.0776 4.93699 21.7147 5.71996 21.7147C6.50294 21.7147 7.14006 21.0776 7.14006 20.2946Z" fill="#2B2A2A"/>
<path d="M19.5112 20.2946C19.5112 19.5116 18.874 18.8756 18.09 18.8756C17.307 18.8756 16.671 19.5116 16.671 20.2946C16.671 21.0776 17.307 21.7147 18.09 21.7147C18.874 21.7147 19.5112 21.0776 19.5112 20.2946Z" fill="#2B2A2A"/>
<path d="M3.31205 0.691313L1.03112 0.296536C0.592475 0.226354 0.159317 0.51805 0.0803617 0.96656C0.00359963 1.41507 0.302972 1.83946 0.751482 1.91841L2.40406 2.20353L3.40855 14.1499C3.52588 15.5919 4.74859 16.7192 6.19282 16.7192H18.1688C19.5505 16.7192 20.7392 15.6873 20.9355 14.3188L21.9762 7.12727C22.0639 6.52194 21.9104 5.91772 21.5441 5.42754C21.1779 4.93626 20.6405 4.61715 20.0297 4.52832L20.0159 4.52696L20.012 4.52669L19.9892 4.52562L19.9812 4.52535L19.9498 4.52455L19.9365 4.52429L19.8868 4.5235L19.8666 4.52324L19.7936 4.52246L19.7648 4.52221L19.6633 4.52144L19.6242 4.52118L19.438 4.52017L19.3836 4.51992L19.1996 4.51916L19.131 4.51892L18.8177 4.51793L18.729 4.51768L18.4367 4.51695L18.3301 4.51671L17.8552 4.51575L17.7238 4.51551L17.2974 4.5148L17.1442 4.51456L16.4733 4.51362L16.2906 4.51339L15.496 4.51247L15.281 4.51224L14.5948 4.51156L14.3521 4.51133L13.3082 4.51043L13.0285 4.51021L11.8312 4.50933L11.5118 4.50911L10.1505 4.50824L9.78878 4.50803L7.84626 4.50696L7.43025 4.50675L5.67097 4.50591L5.20681 4.50571L4.24854 4.50529L3.99084 1.43371C3.95904 1.06087 3.67941 0.756012 3.31205 0.691313Z" fill="#2B2A2A"/>
</svg>
