<svg width="21" height="20" viewBox="0 0 21 20" fill="none" xmlns="http://www.w3.org/2000/svg">
<path fill-rule="evenodd" clip-rule="evenodd" d="M9.9086 0C15.0916 0 19.3074 4.21587 19.3074 9.39884C19.3074 11.8441 18.369 14.0744 16.8334 15.7482L19.8551 18.7636C20.1379 19.0464 20.1388 19.5039 19.856 19.7867C19.7151 19.9295 19.5289 20 19.3435 20C19.1592 20 18.9739 19.9295 18.832 19.7886L15.7738 16.739C14.1651 18.0273 12.1253 18.7986 9.9086 18.7986C4.72563 18.7986 0.508789 14.5818 0.508789 9.39884C0.508789 4.21587 4.72563 0 9.9086 0ZM9.9086 1.44776C5.52382 1.44776 1.95655 5.01407 1.95655 9.39884C1.95655 13.7836 5.52382 17.3509 9.9086 17.3509C14.2924 17.3509 17.8597 13.7836 17.8597 9.39884C17.8597 5.01407 14.2924 1.44776 9.9086 1.44776Z" fill="#2B2A2A"/>
</svg>
